<svg xmlns="http://www.w3.org/2000/svg" version="1.1" xmlns:xlink="http://www.w3.org/1999/xlink" xmlns:svgjs="http://svgjs.dev/svgjs" viewBox="0 0 11.705258755039338 11.728680663866738"><g transform="matrix(1,0,0,1,0.9764135572071693,9.672267106659568)"><rect width="11.705258755039338" height="11.728680663866738" x="-0.9764135572071693" y="-9.672267106659568" fill="#ffffff"></rect><g><path d=" M 0.0915 1.0709999999999997 L 0.0915 0.005999999999999783 L 0.501 0.005999999999999783 Q 0.678 0.005999999999999783 0.79725 0.07724999999999971 Q 0.9165 0.14849999999999974 0.9772500000000001 0.26924999999999977 Q 1.038 0.3899999999999997 1.038 0.5369999999999997 Q 1.038 0.6989999999999997 0.9712500000000001 0.8189999999999997 Q 0.9045 0.9389999999999997 0.7837500000000001 1.0049999999999997 Q 0.663 1.0709999999999997 0.501 1.0709999999999997 L 0.0915 1.0709999999999997 Z M 0.741 0.5369999999999997 Q 0.741 0.4544999999999997 0.7125 0.39224999999999977 Q 0.684 0.32999999999999974 0.63 0.29549999999999976 Q 0.5760000000000001 0.2609999999999997 0.501 0.2609999999999997 L 0.384 0.2609999999999997 L 0.384 0.8159999999999997 L 0.501 0.8159999999999997 Q 0.5775 0.8159999999999997 0.63075 0.7799999999999998 Q 0.684 0.7439999999999998 0.7125 0.6802499999999998 Q 0.741 0.6164999999999997 0.741 0.5369999999999997 Z M 1.6454135742187501 1.0799999999999996 Q 1.5179135742187502 1.0799999999999996 1.42641357421875 1.0379999999999998 Q 1.3349135742187501 0.9959999999999998 1.2771635742187502 0.9224999999999998 Q 1.2194135742187502 0.8489999999999998 1.19241357421875 0.7537499999999997 Q 1.1654135742187501 0.6584999999999996 1.1654135742187501 0.5534999999999998 L 1.1654135742187501 0.005999999999999783 L 1.4579135742187501 0.005999999999999783 L 1.4579135742187501 0.5534999999999998 Q 1.4579135742187501 0.6059999999999997 1.46841357421875 0.6539999999999997 Q 1.4789135742187502 0.7019999999999997 1.5014135742187502 0.7394999999999997 Q 1.5239135742187502 0.7769999999999997 1.5591635742187502 0.7987499999999997 Q 1.5944135742187502 0.8204999999999998 1.6454135742187501 0.8204999999999998 Q 1.69791357421875 0.8204999999999998 1.7339135742187501 0.7987499999999997 Q 1.7699135742187502 0.7769999999999997 1.79166357421875 0.7387499999999998 Q 1.81341357421875 0.7004999999999997 1.82391357421875 0.6524999999999997 Q 1.8344135742187502 0.6044999999999997 1.8344135742187502 0.5534999999999998 L 1.8344135742187502 0.005999999999999783 L 2.12691357421875 0.005999999999999783 L 2.12691357421875 0.5534999999999998 Q 2.12691357421875 0.6644999999999996 2.09766357421875 0.7604999999999997 Q 2.0684135742187504 0.8564999999999997 2.00991357421875 0.9284999999999997 Q 1.9514135742187502 1.0004999999999997 1.86066357421875 1.0402499999999997 Q 1.7699135742187502 1.0799999999999996 1.6454135742187501 1.0799999999999996 Z M 2.602385009765625 0.5474999999999998 L 2.602385009765625 1.0709999999999997 L 2.309885009765625 1.0709999999999997 L 2.309885009765625 0.005999999999999783 L 2.5378850097656254 0.005999999999999783 L 2.965385009765625 0.5474999999999998 L 2.965385009765625 0.005999999999999783 L 3.2578850097656256 0.005999999999999783 L 3.2578850097656256 1.0709999999999997 L 3.025385009765625 1.0709999999999997 L 2.602385009765625 0.5474999999999998 Z M 3.6718359375000005 0.005999999999999783 L 3.8623359375 0.4409999999999997 L 4.0573359375 0.005999999999999783 L 4.375335937500001 0.005999999999999783 L 4.0078359375 0.7184999999999997 L 4.0078359375 1.0709999999999997 L 3.7168359375000004 1.0709999999999997 L 3.7168359375000004 0.7154999999999998 L 3.3553359375000005 0.005999999999999783 L 3.6718359375000005 0.005999999999999783 Z M 4.607735595703126 0.005999999999999783 L 4.934735595703126 0.005999999999999783 L 5.273735595703125 1.0709999999999997 L 4.976735595703126 1.0709999999999997 L 4.912235595703126 0.8624999999999997 L 4.628735595703126 0.8624999999999997 L 4.565735595703125 1.0709999999999997 L 4.267235595703125 1.0709999999999997 L 4.607735595703126 0.005999999999999783 Z M 4.865735595703126 0.6674999999999998 L 4.771235595703126 0.29249999999999976 L 4.672235595703126 0.6674999999999998 L 4.865735595703126 0.6674999999999998 Z M 5.626143310546875 0.5294999999999997 Q 5.626143310546875 0.4319999999999997 5.662893310546875 0.3382499999999997 Q 5.6996433105468745 0.24449999999999972 5.7701433105468745 0.1679999999999997 Q 5.8406433105468745 0.09149999999999969 5.941893310546875 0.045749999999999735 Q 6.043143310546875 -2.220446049250313e-16 6.1706433105468745 -2.220446049250313e-16 Q 6.323643310546875 -2.220446049250313e-16 6.437643310546875 0.06374999999999975 Q 6.551643310546875 0.12749999999999972 6.607143310546875 0.2324999999999997 L 6.383643310546875 0.39149999999999974 Q 6.364143310546875 0.33899999999999975 6.327393310546875 0.31049999999999967 Q 6.290643310546875 0.2819999999999997 6.247893310546875 0.2707499999999997 Q 6.205143310546875 0.25949999999999973 6.164643310546875 0.25949999999999973 Q 6.101643310546875 0.25949999999999973 6.055893310546875 0.28424999999999967 Q 6.010143310546875 0.3089999999999997 5.9808933105468745 0.3494999999999997 Q 5.951643310546875 0.3899999999999997 5.937393310546875 0.43949999999999967 Q 5.923143310546875 0.48899999999999977 5.923143310546875 0.5384999999999998 Q 5.923143310546875 0.5939999999999996 5.939643310546875 0.6449999999999998 Q 5.956143310546874 0.6959999999999997 5.987643310546875 0.7357499999999997 Q 6.019143310546875 0.7754999999999997 6.064893310546875 0.7979999999999997 Q 6.110643310546875 0.8204999999999998 6.167643310546875 0.8204999999999998 Q 6.208143310546875 0.8204999999999998 6.250143310546875 0.8077499999999997 Q 6.292143310546875 0.7949999999999997 6.326643310546875 0.7664999999999997 Q 6.361143310546875 0.7379999999999998 6.3791433105468744 0.6899999999999997 L 6.617643310546875 0.8324999999999997 Q 6.586143310546875 0.9104999999999998 6.512643310546875 0.9659999999999997 Q 6.439143310546875 1.0214999999999996 6.346143310546875 1.0507499999999996 Q 6.253143310546875 1.0799999999999996 6.161643310546875 1.0799999999999996 Q 6.043143310546875 1.0799999999999996 5.944893310546875 1.0327499999999998 Q 5.846643310546875 0.9854999999999997 5.775393310546875 0.9067499999999997 Q 5.704143310546875 0.8279999999999997 5.665143310546875 0.7297499999999997 Q 5.626143310546875 0.6314999999999997 5.626143310546875 0.5294999999999997 Z M 7.199540771484376 1.0799999999999996 Q 7.078040771484376 1.0799999999999996 6.979040771484375 1.0342499999999997 Q 6.880040771484375 0.9884999999999997 6.808790771484375 0.9112499999999997 Q 6.737540771484375 0.8339999999999997 6.6992907714843755 0.7372499999999997 Q 6.661040771484376 0.6404999999999997 6.661040771484376 0.5369999999999997 Q 6.661040771484376 0.43049999999999977 6.7015407714843755 0.3344999999999997 Q 6.742040771484375 0.2384999999999997 6.814790771484375 0.16274999999999973 Q 6.8875407714843755 0.08699999999999974 6.987290771484376 0.04349999999999965 Q 7.087040771484375 -2.220446049250313e-16 7.205540771484375 -2.220446049250313e-16 Q 7.327040771484375 -2.220446049250313e-16 7.4260407714843755 0.045749999999999735 Q 7.525040771484376 0.09149999999999969 7.595540771484376 0.16949999999999976 Q 7.666040771484376 0.24749999999999972 7.704290771484375 0.3442499999999997 Q 7.742540771484375 0.4409999999999997 7.742540771484375 0.5429999999999997 Q 7.742540771484375 0.6479999999999997 7.702790771484375 0.7439999999999998 Q 7.663040771484376 0.8399999999999997 7.5902907714843755 0.9157499999999997 Q 7.517540771484375 0.9914999999999997 7.418540771484375 1.0357499999999997 Q 7.319540771484375 1.0799999999999996 7.199540771484376 1.0799999999999996 Z M 6.9580407714843755 0.5399999999999997 Q 6.9580407714843755 0.5939999999999996 6.973040771484375 0.6442499999999998 Q 6.988040771484376 0.6944999999999997 7.018040771484375 0.7342499999999997 Q 7.048040771484375 0.7739999999999998 7.093790771484375 0.7972499999999998 Q 7.139540771484375 0.8204999999999998 7.202540771484376 0.8204999999999998 Q 7.265540771484376 0.8204999999999998 7.312040771484376 0.7964999999999998 Q 7.358540771484376 0.7724999999999997 7.387790771484376 0.7312499999999997 Q 7.417040771484375 0.6899999999999997 7.431290771484376 0.6397499999999997 Q 7.445540771484375 0.5894999999999997 7.445540771484375 0.5369999999999997 Q 7.445540771484375 0.48299999999999976 7.430540771484376 0.43349999999999966 Q 7.415540771484375 0.3839999999999997 7.385540771484376 0.3442499999999997 Q 7.3555407714843755 0.30449999999999966 7.3090407714843755 0.2819999999999997 Q 7.2625407714843755 0.25949999999999973 7.201040771484376 0.25949999999999973 Q 7.138040771484375 0.25949999999999973 7.092290771484375 0.28349999999999975 Q 7.046540771484375 0.30749999999999966 7.016540771484375 0.3472499999999997 Q 6.986540771484376 0.3869999999999997 6.972290771484375 0.4372499999999997 Q 6.9580407714843755 0.4874999999999997 6.9580407714843755 0.5399999999999997 Z M 7.881971191406251 1.0709999999999997 L 7.881971191406251 0.005999999999999783 L 8.370971191406252 0.005999999999999783 Q 8.448971191406251 0.005999999999999783 8.514971191406252 0.037499999999999645 Q 8.58097119140625 0.06899999999999973 8.62897119140625 0.12224999999999975 Q 8.67697119140625 0.17549999999999966 8.703221191406252 0.24149999999999971 Q 8.729471191406251 0.30749999999999966 8.729471191406251 0.37499999999999967 Q 8.729471191406251 0.43649999999999967 8.71147119140625 0.4934999999999997 Q 8.693471191406251 0.5504999999999998 8.658971191406252 0.5977499999999998 Q 8.62447119140625 0.6449999999999998 8.57647119140625 0.6794999999999998 L 8.80147119140625 1.0709999999999997 L 8.48047119140625 1.0709999999999997 L 8.29297119140625 0.7439999999999998 L 8.174471191406251 0.7439999999999998 L 8.174471191406251 1.0709999999999997 L 7.881971191406251 1.0709999999999997 Z M 8.174471191406251 0.48899999999999977 L 8.358971191406251 0.48899999999999977 Q 8.376971191406252 0.48899999999999977 8.39347119140625 0.4754999999999997 Q 8.409971191406251 0.46199999999999974 8.421221191406252 0.43649999999999967 Q 8.43247119140625 0.4109999999999997 8.43247119140625 0.37499999999999967 Q 8.43247119140625 0.3374999999999997 8.419721191406252 0.31274999999999975 Q 8.406971191406251 0.2879999999999997 8.38822119140625 0.27449999999999974 Q 8.369471191406252 0.2609999999999997 8.351471191406251 0.2609999999999997 L 8.174471191406251 0.2609999999999997 L 8.174471191406251 0.48899999999999977 Z M 8.909452880859376 1.0709999999999997 L 8.909452880859376 0.005999999999999783 L 9.368452880859376 0.005999999999999783 Q 9.446452880859377 0.005999999999999783 9.512452880859376 0.037499999999999645 Q 9.578452880859377 0.06899999999999973 9.626452880859377 0.12224999999999975 Q 9.674452880859377 0.17549999999999966 9.700702880859376 0.24149999999999971 Q 9.726952880859377 0.30749999999999966 9.726952880859377 0.37499999999999967 Q 9.726952880859377 0.4694999999999997 9.682702880859377 0.5534999999999998 Q 9.638452880859376 0.6374999999999997 9.559702880859376 0.6907499999999998 Q 9.480952880859377 0.7439999999999998 9.375952880859376 0.7439999999999998 L 9.201952880859377 0.7439999999999998 L 9.201952880859377 1.0709999999999997 L 8.909452880859376 1.0709999999999997 Z M 9.201952880859377 0.48899999999999977 L 9.356452880859376 0.48899999999999977 Q 9.374452880859376 0.48899999999999977 9.390952880859377 0.4784999999999997 Q 9.407452880859376 0.46799999999999975 9.418702880859376 0.44249999999999967 Q 9.429952880859377 0.4169999999999997 9.429952880859377 0.37499999999999967 Q 9.429952880859377 0.32999999999999974 9.417202880859376 0.3052499999999997 Q 9.404452880859377 0.28049999999999975 9.385702880859377 0.2707499999999997 Q 9.366952880859376 0.2609999999999997 9.348952880859377 0.2609999999999997 L 9.201952880859377 0.2609999999999997 L 9.201952880859377 0.48899999999999977 Z" fill="#000000" fill-rule="nonzero"></path></g><g></g><g clip-path="url(&quot;#SvgjsClipPath1010&quot;)"><path d=" M 5.32676465614323 -8.605454505345111 L 5.318809540261785 -8.605454505345111 L 5.318809540261785 -1.8200505980553912 L 6.603974007887636 -1.8200505980553912 L 6.603974007887636 -2.898382052763761 C 7.872729276251014 -3.496423486644563 8.556878081093549 -4.894549078424584 8.25055315598982 -6.263329019795075 C 7.94422823088608 -7.6321089611655655 6.729402687827357 -8.605255228429527 5.32676465614323 -8.605454505345111 Z" fill="#0094ff" transform="matrix(1,0,0,1,0,0)" fill-rule="nonzero"></path><path d=" M 7.816819240227651 -5.517216532253599 C 7.766893226767918 -5.517216532253599 7.726420196120363 -5.55768956290115 7.726420196120363 -5.607615576360887 C 7.726136905479513 -6.742039472431686 6.921136567140265 -7.71680208167405 5.807222661423538 -7.931542545674579 C 5.775498302093206 -7.937595826046123 5.749413171897916 -7.960114032132259 5.738793287072886 -7.9906147735089865 C 5.728173402247861 -8.021115514885711 5.7346321759596695 -8.054965003283364 5.755736650623986 -8.079412463833897 C 5.776841125288303 -8.103859924384437 5.809385029099169 -8.11519120619156 5.841109388274028 -8.10913792500107 C 7.0402882259657185 -7.878121563399631 7.906994370692186 -6.828843769286529 7.907373254124832 -5.607615576360891 C 7.907373289392052 -5.583613384794212 7.8978278617765385 -5.560596517845022 7.880841220522005 -5.543638946714326 C 7.863854579267478 -5.526681375583627 7.840821396515722 -5.5171753856381365 7.8168192402226095 -5.517216532253606 Z" fill="#ffffff" transform="matrix(1,0,0,1,0,0)" fill-rule="nonzero"></path><path d=" M 5.071219472601083 -0.3403990441072864 C 5.387379518978679 -0.3403990441072864 5.643677876485058 -0.596697401613671 5.643677876485058 -0.9128574479912723 L 4.498761068717097 -0.9128574479912723 C 4.498789592940846 -0.5967092174874953 4.755071242097777 -0.34042756833076915 5.071219472601314 -0.3403990441072864 Z" fill="#0094ff" transform="matrix(1,0,0,1,0,0)" fill-rule="nonzero"></path><path d=" M 5.32676465614323 -8.6958535494524 L 5.228617122541031 -8.6958535494524 L 5.228617122541031 -1.9102430157761505 L 3.9080162296251237 -1.9102430157761505 C 3.858090216165386 -1.9102430157761505 3.817617185517835 -1.869769985128599 3.817617185517835 -1.8198439716688615 C 3.817617185517835 -1.7699179582091231 3.858090216165386 -1.7294449275615724 3.9080162296251237 -1.7294449275615724 L 6.694373051994925 -1.7294449275615724 L 6.694373051994925 -2.8416631096610168 C 7.98011122255675 -3.4771891688443626 8.658758239110783 -4.914560367794968 8.332489763196358 -6.31118662301332 C 8.006221287281933 -7.707812878231675 6.760994764327343 -8.695744375442292 5.32676465614323 -8.695853549452394 Z M 5.409415210755609 -4.698201192641562 L 5.807171004827679 -4.698201192641562 C 5.730352563539708 -4.313204831418404 5.693823865312768 -3.9212570930971617 5.698175585932598 -3.5286958448764087 L 5.698175585932598 -1.9102430157761452 L 5.409570180545506 -1.9102430157761452 Z M 6.565541499992879 -2.9801544452333832 L 6.513884903360142 -2.9556692184294633 L 6.513884903360142 -1.9102430157761452 L 5.8786120779707485 -1.9102430157761452 L 5.8786120779707485 -3.5286958448764105 C 5.87331688536839 -3.921835076026282 5.911779372591869 -4.314343025597394 5.993289722495433 -4.698976041591068 C 6.514039873150044 -4.711321968186278 6.716017165984041 -4.868461335143062 6.7933987477398805 -5.001167131892563 C 6.860499884602676 -5.117356392182683 6.858995269776952 -5.2608689299680345 6.789472846395795 -5.37562580088327 C 6.73184779182052 -5.479266207722437 6.627165634430563 -5.548160417829247 6.509184153066565 -5.560091507458774 C 6.345575145628207 -5.569939047701915 6.18736167397053 -5.499778161852994 6.08482521172863 -5.371906525925718 C 5.992463216949298 -5.267663513920856 5.913583593891108 -5.098126563772214 5.851698991125089 -4.878999280856147 L 5.409208584369069 -4.878999280856147 L 5.409208584369069 -8.5139190161119 C 6.7535840820174915 -8.47556645014478 7.896017126325326 -7.519776904650332 8.17106273628492 -6.203279160468574 C 8.446108346244523 -4.886781416286815 7.7819036237694865 -3.5535451271599374 6.565334873606344 -2.9801544452333832 Z M 6.042260176103257 -4.881530454091141 C 6.0764828642993 -5.015601186810343 6.1370085913500025 -5.141534031140969 6.2203204646963055 -5.252011565141128 C 6.281025857125654 -5.327977264364862 6.37083816462308 -5.374963795019295 6.467858875760376 -5.381514652899398 C 6.475399003797544 -5.381509292717724 6.482933775946658 -5.381112725762507 6.490432808488876 -5.380326551176845 C 6.550505125898034 -5.374968878411422 6.603843398751868 -5.339727172830895 6.6323334794390085 -5.286569828288425 C 6.669284008341999 -5.227538166118922 6.671262250866718 -5.153096899913788 6.637499139102277 -5.092186055159441 C 6.602682592971815 -5.033090908611593 6.477312032944167 -4.901418243794747 6.042053549716727 -4.881530454091143 Z" fill="#414042" transform="matrix(1,0,0,1,0,0)" fill-rule="nonzero"></path><path d=" M 2.3597130587521167 -5.763153588822056 C 2.1758429600899882 -5.716348349509717 2.0393552100281296 -5.561776937744165 2.0156699738281794 -5.373527228062426 C 1.991984737628219 -5.185277518380689 2.0859289128201843 -5.001713580746838 2.2524739641425535 -4.910819744381907 C 2.296309003960202 -4.886912316222327 2.351225124687406 -4.903066837312224 2.3751325528469787 -4.946901877129871 C 2.399039981006562 -4.99073691694752 2.38288545991667 -5.045653037674724 2.339050420099022 -5.0695604658343045 C 2.237633844354237 -5.124762581137592 2.180367061811598 -5.236437272222409 2.19472407787157 -5.351008086392549 C 2.2090810939315375 -5.465578900562693 2.2921326670888376 -5.559670118047492 2.404034418663007 -5.588141039430344 C 2.4519410908566774 -5.600799221655848 2.4807292666982246 -5.649663919826487 2.468581561612913 -5.697702571754764 C 2.456433856527602 -5.745741223683043 2.4078782511091816 -5.775047724293693 2.3597130587521216 -5.763411871805221 Z" fill="#414042" transform="matrix(1,0,0,1,0,0)" fill-rule="nonzero"></path><path d=" M 3.625712929027214 -6.646842987418276 C 3.65784330109603 -6.650137226683702 3.6857755334428557 -6.670322578896857 3.698987824294473 -6.699795417105462 C 3.71220011514609 -6.72926825531407 3.7086852031780055 -6.763550954182492 3.689767121733475 -6.789729552618548 C 3.670849040288944 -6.8159081510546065 3.639401896034514 -6.830005497119994 3.6072715240638717 -6.826711256897008 C 3.3197601059026343 -6.7971320776039725 3.0879246043938826 -6.578199681194242 3.0419474660512553 -6.292851041543571 C 2.995970327708623 -6.0075024018929 3.147306574485876 -5.726831002621621 3.4109764568249354 -5.608442081907011 C 3.4565089810012726 -5.587958152234451 3.5100258908328796 -5.608264049935033 3.5305098208446832 -5.653796573958756 C 3.5509937508564873 -5.6993290979824796 3.5306878535546398 -5.752846007965376 3.485155329683531 -5.773329938316425 C 3.2960807644755965 -5.858194984929055 3.1875472409508383 -6.059442531888421 3.2205073409102836 -6.264051669301876 C 3.2534674408697395 -6.468660806715333 3.419707924567164 -6.62564552720082 3.625867898817121 -6.6468429874182835 Z" fill="#414042" transform="matrix(1,0,0,1,0,0)" fill-rule="nonzero"></path><path d=" M 3.8599239381600405 -4.748049808392153 C 4.10097167344106 -4.86201551955307 4.263357225343867 -5.095425081620739 4.28640079995991 -5.361058640632841 C 4.290680172542173 -5.410784950038734 4.253838150929857 -5.4545652054763405 4.204111841523959 -5.4588445780586055 C 4.1543855321180665 -5.46312395064087 4.110605276680454 -5.426281929028555 4.106325904098192 -5.37655561962266 C 4.084648234502579 -5.1213569505301315 3.89438920985229 -4.912472738928694 3.6423181703600225 -4.867124385981984 C 3.390247130867755 -4.821776033035272 3.139115930489603 -4.951252789690139 3.0298540868686046 -5.182895038846528 C 3.0161050193555 -5.212127956283789 2.987804781194436 -5.23180524567843 2.95561379829703 -5.2345146624924705 C 2.9234228153996185 -5.237224079306516 2.8922316638985794 -5.222553998668282 2.873789748791217 -5.196030498021752 C 2.85534783368386 -5.169506997375226 2.8524569206122177 -5.13515962746856 2.86620598856093 -5.1059267102361785 C 3.041879972415198 -4.732647574981852 3.4868463713914437 -4.572393072076469 3.8601822211431975 -4.747946495198891 Z" fill="#414042" transform="matrix(1,0,0,1,0,0)" fill-rule="nonzero"></path><path d=" M 4.042633320450033 -3.235441345792367 C 3.951760140242547 -3.1406685485766532 3.8046314458358665 -3.1281499308167398 3.6990527999673 -3.206207393686565 C 3.5934741540987387 -3.284264856556387 3.5623117424448263 -3.428599442184174 3.6262811515901805 -3.543263005126848 C 3.6506022524327086 -3.586869811740107 3.6349680988797104 -3.641936260866861 3.5913612922664484 -3.666257361709391 C 3.547754485653187 -3.69057846255192 3.49268803652643 -3.6749443089989215 3.4683669356839024 -3.6313375023856596 C 3.360261092343569 -3.437245520437683 3.4130773790247773 -3.193065548260077 3.591731330554768 -3.060999896315529 C 3.770385282084753 -2.928934244370973 4.019317781588025 -2.950053658247734 4.17316954014096 -3.1103290687478786 C 4.195518696693793 -3.133647118355359 4.203730137382838 -3.167117017938142 4.194710691896761 -3.1981309799430786 C 4.18569124641068 -3.2291449419480127 4.160811183119385 -3.252991207628252 4.129442581299951 -3.2606871192710303 C 4.098073979480507 -3.2683830309138093 4.064982476105579 -3.2587593964309987 4.04263332053553 -3.235441345881571 Z" fill="#414042" transform="matrix(1,0,0,1,0,0)" fill-rule="nonzero"></path><path d=" M 4.949206591354553 -3.2612696441087348 C 4.950782245611821 -3.2678527922027207 4.9515968663276055 -3.274595078552535 4.951634451396292 -3.2813640601988707 L 4.951634451396292 -3.3147342216236195 C 4.951634451396292 -3.3185051531778074 4.952151017362621 -3.3221211149421004 4.952151017362621 -3.325892046496291 C 4.952151017362621 -3.3275967141851712 4.9517377645895575 -3.3291980686807863 4.951634451396292 -3.3310577061595668 L 4.951634451396292 -4.236959441307859 C 4.951634451396292 -4.23809588643378 4.951944390976086 -4.239180674963067 4.9519960475727185 -4.240317120088988 C 4.9519960475727185 -4.243364859290319 4.9519960475727185 -4.246257628701753 4.951634451396292 -4.249202054709819 L 4.951634451396292 -7.338679786120517 C 4.950050900497595 -7.346451746206036 4.950050900497595 -7.354463234099528 4.951634451396292 -7.362235194185046 C 4.951669808489306 -8.074875773178487 4.391361727214187 -8.661592467440597 3.679474640998644 -8.694354832421348 C 2.9675875547831003 -8.7271171974021 2.355758490696349 -8.194344430073675 2.2903382494744298 -7.484712984802218 C 2.279387050988208 -7.4823367813561585 2.2683325393087967 -7.480942053247075 2.25748465401593 -7.478152597028906 C 1.9676708567247292 -7.404842526865497 1.7279594077527465 -7.201792843177703 1.6079799207255583 -6.927983920422435 C 1.4880004336983599 -6.654174997667164 1.5012029977380852 -6.340301702981662 1.6437526294223879 -6.077535635928895 C 1.406129742476978 -5.829871231199604 1.2984653453847161 -5.485070963535043 1.3529411604984831 -5.146198304062677 C 1.40741697561225 -4.80732564459031 1.6177216856395904 -4.513640820462283 1.9209935835502843 -4.352928500748354 C 1.877942006370831 -4.254567365536549 1.8559303188507252 -4.148291911802365 1.8563711811627313 -4.040922657086621 C 1.8570585452788846 -3.602057691108042 2.208801978317548 -3.244435409805507 2.64759527178636 -3.236474477725018 C 2.7353432359742005 -2.670571421881286 3.2198721126655094 -2.2513852997663344 3.792512079554321 -2.245959237292304 L 3.805167945729343 -2.245959237292304 C 4.118361046964937 -2.241442577271477 4.420875776056217 -2.3597227768959526 4.647945319792443 -2.575476667212526 C 4.831470997298321 -2.757756001481404 4.939116905447621 -3.002801796507147 4.949206591354553 -3.2612696441087348 Z M 3.7943717170330986 -2.426757325506877 C 3.256075117586788 -2.4308283862688853 2.82057344723554 -2.865962137156301 2.8160474334057053 -3.4042551035881488 C 2.8153464045996563 -3.6636295115899093 2.918431328478893 -3.912506502117539 3.102328291944343 -4.0954203665341735 C 3.1365942543336836 -4.130884109232366 3.13611573169936 -4.1872666810174435 3.101252782403171 -4.2221437220473845 C 3.0663898331069817 -4.25702076307732 3.0100074593074924 -4.257522071111838 2.9745298718749353 -4.223270443200186 C 2.7601087230214736 -4.009786254298443 2.6384508525419053 -3.7204057025795274 2.6359208809473493 -3.41784078850256 C 2.30176513184881 -3.4318067349152885 2.0378898599711244 -3.706475662201165 2.037324239167211 -4.040922657086628 C 2.0370408822422164 -4.123897128941564 2.0541083056237586 -4.206014309273168 2.0874311379009645 -4.2820039935716085 C 2.1418573106572936 -4.2636995842248195 2.1976253739394243 -4.249658260146663 2.2542302884280714 -4.240007180509193 C 2.2591645103151823 -4.239188351022153 2.26415734637496 -4.23877372103795 2.2691590448549306 -4.238767422190007 C 2.3161624099538565 -4.238898276467498 2.3552324919563707 -4.275008796442841 2.359057887299177 -4.3218564196903 C 2.3628832826419837 -4.368704042937761 2.3301889957540363 -4.410674563133024 2.283829518298628 -4.418429065278663 C 1.8864645016883963 -4.484962957589703 1.5794043245498615 -4.803625059921377 1.5276467082847287 -5.203183396601091 C 1.475889092019601 -5.602741733280801 1.6916198049474724 -5.989124635783522 2.0589166965596943 -6.154710591298197 C 2.104434956259694 -6.175237315117791 2.124694599029558 -6.228777352802981 2.104167875209969 -6.274295612502985 C 2.0836411513903794 -6.3198138722029915 2.0301011137051876 -6.34007351497285 1.9845828540051884 -6.319546791153265 C 1.9135261854115346 -6.287435396448781 1.846109403864859 -6.2478131010008475 1.7834837233139433 -6.201356498057559 C 1.6838165432637864 -6.411837568092787 1.6823752742885818 -6.655628808242648 1.7795468894306505 -6.867273569181835 C 1.8767185045727242 -7.078918330121022 2.0625459477964854 -7.236729633185748 2.2871355404831237 -7.2983359841503495 C 2.2988002947368926 -7.031882368148594 2.3908612400694826 -6.775203054019995 2.551204062469669 -6.562074512343958 C 2.5705819416911693 -6.536237333917524 2.602271811895368 -6.522700773088561 2.6343364040919983 -6.526563921988945 C 2.6664009962886293 -6.530427070889324 2.6939689353774936 -6.551103025208955 2.7066556441328036 -6.580803352027369 C 2.7193423528881184 -6.610503678845784 2.7152204181447566 -6.644716191273348 2.695842533033816 -6.670553365282714 C 2.3947016333795244 -7.07178745036094 2.387612194320117 -7.621708182275324 2.678309515367597 -8.030572096092042 C 2.969006836415087 -8.439436009908764 3.4907456047515355 -8.613366252104278 3.9686309314415427 -8.460722067740452 C 4.446516258131545 -8.308077883376626 4.770823686458103 -7.86390701145047 4.770681393391817 -7.362235194185043 C 4.772264944290519 -7.3544632340995255 4.772264944290519 -7.346451746206033 4.770681393391822 -7.338679786120515 L 4.770681393391822 -6.5062853879806015 C 4.635726381415868 -6.606769934802048 4.455601991908614 -6.622442700692464 4.30531999442071 -6.5467768521319085 C 4.155037996932807 -6.4711110035713535 4.060359619328432 -6.317077123855818 4.060713129271491 -6.148821739282061 C 4.060713129271491 -6.0988957258223255 4.101186159919047 -6.058422695174775 4.151112173378779 -6.058422695174775 C 4.201038186838513 -6.058422695174775 4.241511217486068 -6.0988957258223255 4.241511217486068 -6.148821739282064 C 4.241511217486068 -6.2949480483910785 4.359969996329931 -6.413406827234941 4.506096305438943 -6.413406827234941 C 4.652222614547955 -6.413406827234941 4.770681393391817 -6.2949480483910785 4.770681393391817 -6.148821739282064 L 4.770681393391817 -4.24698082105461 C 4.7589422118465965 -4.090214487596511 4.630945543241369 -3.967492757742214 4.473824184553567 -3.9623575524544696 C 4.31670282586577 -3.9572223471667254 4.180966031573178 -4.071324462956207 4.159015632663598 -4.226989718157739 C 4.156082206247735 -4.247687329886399 4.15523422935043 -4.268627167554518 4.156484459428588 -4.289494200083349 C 4.158394565270446 -4.32179066815513 4.1429296151026875 -4.352652864632463 4.1159151060677805 -4.37045529861891 C 4.088900597032879 -4.388257732605356 4.054440675765516 -4.3902957908340206 4.025516061291295 -4.375801756483407 C 3.9965914468170833 -4.361307722132795 3.9775964762309632 -4.332483583853762 3.9756863712226616 -4.300187115732678 C 3.9737794662373473 -4.267226298841905 3.9751638231693796 -4.2341574726280955 3.9798188989446355 -4.201471359421168 C 4.004271128403889 -4.0272994801602975 4.120620326717791 -3.8797905763551688 4.284305239129381 -3.8154399392208056 C 4.447990151540985 -3.7510893020864424 4.633645027083423 -3.779869153326482 4.770164827425493 -3.8907569306752574 L 4.770164827425493 -3.3148891914135117 C 4.77225773863775 -3.085893192112735 4.682112966313941 -2.865688242289096 4.520043586529791 -2.7038949664415135 C 4.32398564836455 -2.5197197417826276 4.063287456805803 -2.4201578256584373 3.7943717170330986 -2.426757325506877 Z" fill="#414042" transform="matrix(1,0,0,1,0,0)" fill-rule="nonzero"></path><path d=" M 3.1036197068601488 -7.2716295236912245 C 3.1535457203198867 -7.2716295236912245 3.1940187509674374 -7.312102554338775 3.1940187509674374 -7.362028567798514 C 3.1923343675972093 -7.514632678683004 3.2727823202692337 -7.656371006897697 3.404667777054836 -7.733163442037068 C 3.536553233840443 -7.809955877176442 3.699530615014076 -7.809955877176442 3.831416071799683 -7.733163442037068 C 3.96330152858529 -7.656371006897694 4.04374948125731 -7.5146326786829984 4.042065097887072 -7.362028567798514 C 4.042065097887072 -7.312102554338775 4.082538128534628 -7.2716295236912245 4.13246414199436 -7.2716295236912245 C 4.182390155454097 -7.2716295236912245 4.222863186101649 -7.312102554338775 4.222863186101649 -7.362028567798514 C 4.224872467759761 -7.579442220941616 4.110035644053408 -7.781206029506448 3.922077634658366 -7.890497019483075 C 3.7341196252633293 -7.999788009459703 3.501964223591195 -7.999788009459703 3.3140062141961577 -7.890497019483079 C 3.126048204801121 -7.781206029506459 3.011211381094763 -7.579442220941629 3.013220662752865 -7.362028567798514 C 3.01322066275286 -7.312102554338775 3.053693693400416 -7.2716295236912245 3.1036197068601488 -7.2716295236912245 Z" fill="#414042" transform="matrix(1,0,0,1,0,0)" fill-rule="nonzero"></path><path d=" M 6.233751179820814 -1.0032564920985614 L 3.9086877653813508 -1.0032564920985614 C 3.858761751921613 -1.0032564920985614 3.8182887212740617 -0.9627834614510107 3.8182887212740617 -0.9128574479912723 C 3.8182887212740617 -0.8629314345315349 3.858761751921613 -0.8224584038839842 3.9086877653813508 -0.8224584038839842 L 4.4152840085585945 -0.8224584038839842 C 4.459755665998898 -0.49417287026591517 4.740038738640864 -0.2492986689125356 5.071322785794342 -0.2492986689125356 C 5.402606832947826 -0.2492986689125356 5.682889905589791 -0.49417287026591517 5.7273615630301 -0.8224584038839842 L 6.2339061496107115 -0.8224584038839842 C 6.28383216307045 -0.8224584038839842 6.324305193718001 -0.8629314345315349 6.324305193718001 -0.9128574479912723 C 6.324305193718001 -0.9627834614510107 6.28383216307045 -1.0032564920985614 6.2339061496107115 -1.0032564920985614 Z M 5.071477755584245 -0.4307980882145763 C 4.840196945120992 -0.43110726832819246 4.641602948037573 -0.5953458902617061 4.597890077655323 -0.8224584038839842 L 5.545065433513172 -0.8224584038839842 C 5.501319106861144 -0.5952806821887133 5.3026223883582375 -0.4310287720612571 5.071271129197715 -0.4307980882145763 Z" fill="#414042" transform="matrix(1,0,0,1,0,0)" fill-rule="nonzero"></path><path d=" M 6.233751179820814 -1.456749753937351 L 3.9086877653813508 -1.456749753937351 C 3.858761751921613 -1.456749753937351 3.8182887212740617 -1.4162767232897995 3.8182887212740617 -1.366350709830062 C 3.8182887212740617 -1.316424696370329 3.858761751921613 -1.275951665722773 3.9086877653813508 -1.275951665722773 L 6.233751179820814 -1.275951665722773 C 6.283677193280547 -1.275951665722773 6.324150223928103 -1.316424696370329 6.324150223928103 -1.366350709830062 C 6.324150223928103 -1.4162767232897995 6.283677193280547 -1.456749753937351 6.233751179820814 -1.456749753937351 Z" fill="#414042" transform="matrix(1,0,0,1,0,0)" fill-rule="nonzero"></path></g></g><defs><clipPath id="SvgjsClipPath1010"><path d=" M 1.3390820224825077 -8.6958535494524 h 7.074267595659984 v 8.4458535494524 h -7.074267595659984 Z"></path></clipPath></defs></svg>